/* XPM */
static char *Pacman_Chomping_Down[] = {
/* columns rows colors chars-per-pixel */
"40 40 2 1 ",
"  c #DC143C",
". c #FFFFFF",
/* pixels */
"........................................",
"........................................",
"..                                    ..",
"..                                    ..",
"..                                    ..",
"..                                    ..",
"..    ............................    ..",
"..    ............................    ..",
"..    ............................    ..",
"..    ............................    ..",
"..    ............................    ..",
"..    ............................    ..",
"..    ............................    ..",
"..    ............................    ..",
"..    ............................    ..",
"..    ............................    ..",
"..    ............................    ..",
"..    ............................    ..",
"..    ............................    ..",
"..    ............................    ..",
"..    ............................    ..",
"..    ............................    ..",
"..    ............................    ..",
"..    ............................    ..",
"..    ............................    ..",
"..    ............................    ..",
"..    ............................    ..",
"..    ............................    ..",
"..    ............................    ..",
"..    ............................    ..",
"..    ............................    ..",
"..    ............................    ..",
"..    ............................    ..",
"..    ............................    ..",
"..                                    ..",
"..                                    ..",
"..                                    ..",
"..                                    ..",
"........................................",
"........................................"
};
